<?xml version="1.0" encoding="utf-8"?>
<!-- Generator: Adobe Illustrator 17.1.0, SVG Export Plug-In . SVG Version: 6.00 Build 0)  -->
<!DOCTYPE svg PUBLIC "-//W3C//DTD SVG 1.1//EN" "http://www.w3.org/Graphics/SVG/1.1/DTD/svg11.dtd">
<svg version="1.1" id="Calque_1" xmlns="http://www.w3.org/2000/svg" xmlns:xlink="http://www.w3.org/1999/xlink" x="0px" y="0px"
	 viewBox="0 0 158.3 56.4" enable-background="new 0 0 158.3 56.4" xml:space="preserve">
<g>
	<g>
		<g>
			<path fill="#C8C8CB" d="M104.9,11.3c1.2-0.1,2.2-0.1,2.3-0.1c0.2,0,0.7,0,1.1,0c0.4,0,0.7,0,0.9,0c0.1,0,0.3,0,1,0
				c0.4,0,0.8,0,1.5,0.1c0.6,0,1.4,0.1,2.4,0.2c0.7,0.1,1.2,0.1,0.7,0c0,0,0,0,0.2,0c0.4,0,0.5,0,0.7,0c0.2,0,0.7,0.1,1.2,0.1
				c0.4,0,0.7,0,0.8,0c0,0,0.1,0,0.1,0l0,0c0,0,0,0,0,0c0,0,0,0,0,0c0,0,0,0,0,0c0,0,0,0,0,0c0,0-0.1,0-0.1,0c0,0,0,0,0,0
				c0,0,0,0,0,0c0,0,0,0,0,0l0,0l0,0l0,0c0,0,0,0,0,0l0,0c0,0,0,0,0-0.1c0,0,0,0,0,0c0,0,0,0,0,0c0,0,0,0,0,0l0,0c0,0,0,0,0,0
				c0,0,0,0,0,0c0,0-0.1,0-0.1,0c-0.2,0-0.4,0-0.4,0c0,0,0,0-0.2,0c-0.2,0-0.5,0-0.9,0c-0.4,0-0.9-0.1-1.4-0.2c-0.2,0-0.3,0-0.5-0.1
				c0,0,0,0,0,0c0,0,0,0,0-0.1c0,0,0,0,0,0c0,0,0,0,0,0c0,0,0,0,0,0c0,0,0,0,0,0c0,0,0,0,0,0c0,0,0.1-0.3,0.1-0.3c0,0,0,0,0,0
				c0,0,0-0.1,0-0.1c0-0.1,0-0.1,0-0.2c0,0,0-0.1,0-0.1c0,0,0-0.1,0-0.1c0,0,0,0,0-0.1c0,0,0,0,0,0c0,0,0,0,0,0c0,0,0,0,0,0
				c0,0,0-0.1,0-0.2c0,0,0,0,0,0c0,0,0,0,0-0.1c0,0,0-0.1,0-0.1c0,0,0,0,0,0c0,0,0,0,0-0.1c0,0,0,0,0-0.1c0,0,0-0.1,0-0.2
				c0,0,0,0,0,0c0,0,0,0,0,0c0,0,0,0,0,0c0,0,0,0,0,0c0,0,0,0,0,0c0,0,0,0,0,0c0.1,0.1,0.3,0.2,0.6,0.2c0.2,0,0.3,0.1,0.2,0
				c0,0,0,0,0,0c0.1,0,0.1,0,0.2,0c0,0,0.2,0,0.3,0c0.2,0,0.2,0,0.3,0c0,0,0,0-0.1-0.1c0,0-0.1,0-0.1,0c0,0,0,0,0,0
				c0,0-0.1,0-0.2-0.1c-0.1,0-0.2-0.1-0.3-0.1c-0.1,0-0.1,0-0.2,0c0,0-0.1,0-0.1,0c0,0-0.1,0-0.2-0.1c-0.1,0-0.2-0.1-0.3-0.2
				c0-0.1,0-0.1,0-0.2c0-0.1,0-0.1,0-0.2c0,0,0,0,0,0c0,0,0,0,0,0c0,0,0,0,0,0c0,0,0,0,0,0c0,0,0,0,0,0c0,0,0,0,0,0c0,0,0,0,0,0
				c0,0,0,0,0,0c0,0,0,0,0,0c0,0,0,0,0,0c0,0,0,0,0,0c0,0,0,0,0,0c0,0,0,0,0,0.1c0,0,0,0,0,0c0,0,0,0,0,0.1c0,0,0,0,0,0
				c0,0-0.1,0-0.1,0c0,0,0,0-0.1-0.1c0-0.1-0.1-0.1-0.1-0.1c0,0,0,0,0-0.1c0,0,0-0.1-0.1-0.1c0,0,0-0.1,0-0.1c0,0,0-0.1,0-0.1
				c0,0,0,0,0-0.1c0,0,0-0.1,0-0.2c0-0.1,0-0.3,0-0.5c0-0.2,0.1-0.3,0.2-0.4c0.1-0.1,0.2-0.2,0.2-0.2c0,0,0.1-0.1,0.2-0.1
				c0,0,0,0,0,0c0.1,0,0.1,0,0.2,0c0.2,0,0.4,0,0.5,0c0.4,0,0.8,0,1,0c0.1,0,0.4,0,0.6,0c0.2,0,0.4,0,0.4,0c0,0,0.2,0,0.3,0
				c0.1,0,0.2,0,0.2,0c0.1,0,0.2,0,0.2,0c0.1,0,0.2,0,0.3,0c0.1,0,0.6,0,1.1,0c0.1,0,0.2,0,0.2,0c0,0,0.2,0,0.5,0c0.1,0,0.2,0,0.3,0
				c0,0.1,0,0.1,0,0.1c0,0,0,0.2,0,0.3c0,0,0,0.2,0,0.3c0,0.1,0,0.3,0,0.3c0,0.3,0,0.8,0,0.9c0,0.1,0,0.2,0,0.2c0,0,0,0,0,0.1
				c0,0,0,0,0,0c0,0,0,0,0,0c0,0,0,0,0,0c0,0,0,0,0,0c0,0,0,0,0,0c0,0,0,0-0.1,0c-0.1,0-0.2,0-0.2,0c-0.1,0-0.5,0.1-1.1,0.2
				c-0.2,0-0.3,0-0.5,0.1c0,0,0-0.1,0-0.1c0,0,0,0,0,0c0,0,0,0,0,0c0,0,0,0,0,0c0,0,0,0,0,0c0,0,0,0,0,0c0,0,0,0,0,0
				c0,0,0.1-0.3,0.1-0.5c0-0.1,0-0.2,0-0.2c0,0,0,0,0,0c0,0,0,0,0,0c0,0,0,0,0,0c0,0,0,0,0,0c0,0,0,0,0,0c0,0,0,0,0,0c0,0,0,0,0,0
				c0,0,0,0,0,0c0,0,0,0,0,0c0,0,0,0,0,0c0,0,0,0,0,0c0,0,0,0,0,0c0,0,0,0,0,0.1c0,0,0,0,0,0c0,0-0.1,0.2-0.1,0.3c0,0,0,0.1,0,0.1
				l0,0c0,0,0,0,0,0.1c0,0.1-0.1,0.2-0.1,0.3c-0.3,0-0.6,0.1-0.9,0.1c-0.5,0-0.9,0-1,0c-0.1,0-0.1,0-0.1,0c0,0,0,0,0,0
				c0,0-0.1,0-0.1,0c0,0-0.1,0-0.2,0c-0.1,0-0.1,0,0,0c0,0,0.1,0,0.2,0c0,0,0.1,0,0.1,0c0,0,0,0,0,0c0,0,0.1,0,0.1,0
				c0,0,0.1,0,0.2,0c0,0,0.1,0,0.2,0c0,0,0.2,0,0.2,0c0,0,0.2,0,0.3,0c0.2,0,0.2,0,0.4,0c0,0,0.1,0,0.1,0c0.1,0,0.3,0,0.7,0
				c0,0,0,0,0,0.1c0,0.1-0.1,0.3-0.1,0.3c0,0.1-0.2,0.5-0.2,0.6c0,0,0,0.1,0,0.1c0,0,0,0.1,0,0.1c0,0.1,0,0.2,0,0.2c0,0,0,0,0,0
				c0,0,0,0,0,0c0,0,0,0,0,0.2c0,0,0,0.1,0,0c0,0,0,0,0,0c0,0,0,0,0,0c0,0,0,0,0,0c0,0,0,0,0,0.1c0,0,0,0,0,0c0,0,0,0,0,0
				c0,0,0,0,0,0c0,0,0,0,0,0c0,0,0,0,0,0c0,0,0,0,0,0c0,0,0,0,0,0c0,0,0,0,0-0.1c0,0,0,0,0,0c0,0,0,0,0,0c0,0,0,0,0,0c0,0,0,0,0,0
				c0,0,0,0,0,0c0,0,0.1-0.3,0.1-0.3c0,0,0,0,0,0c0,0,0-0.1,0-0.1c0-0.1,0-0.1,0-0.2c0,0,0-0.1,0-0.1c0,0,0-0.1,0-0.1
				c0,0,0-0.1,0-0.1c0,0,0,0,0,0c0,0,0,0,0,0c0,0,0,0,0,0c0,0,0-0.1,0-0.2c0,0,0,0,0,0c0,0,0,0,0-0.1c0,0,0-0.1,0-0.1c0,0,0,0,0,0
				c0,0,0,0,0,0c0.3,0,0.6-0.1,0.7-0.1c0.2,0,0.4-0.1,0.4-0.1l0.1,0c0,0,0.2,0,0.4-0.1c0,0,0.1,0,0.1,0c0.1,0,0.1,0,0.2,0
				c0,0,0.1,0,0.1,0l0.1,0c0,0,0,0,0,0l0,0l0,0c0-0.1,0-0.2,0-0.2c0-0.2,0-0.4,0-0.6c0-0.5,0-1.1,0-1.9c-0.1,0-0.2,0-0.4,0
				c-0.9,0-1.7,0-1.9,0c-0.5,0-3.2,0-3.5,0c-0.1,0-0.2,0-0.4,0c0,0-0.1,0-0.1,0c0,0-0.1,0-0.1,0c0,0-0.1,0-0.1,0
				c-0.1,0-0.1,0.1-0.2,0.1c-0.1,0.1-0.2,0.2-0.3,0.3C114.1,7,114,7.1,114,7.2c-0.1,0.1-0.1,0.2-0.2,0.4c0,0.2,0,0.3,0,0.5
				c0,0.3,0.1,0.5,0.1,0.5c0,0,0,0.1,0.1,0.1c0,0,0.1,0.1,0.1,0.1c0.1,0.1,0.1,0.1,0.2,0.2c0,0,0,0,0.1,0c0,0,0,0,0.1,0
				c0,0,0.1,0,0.1,0.1c0,0,0.1,0.1,0.1,0.1c0,0,0,0,0,0c0,0.1-0.1,0.2-0.2,0.5c0,0.1-0.1,0.3-0.1,0.3c0,0.1-0.2,0.5-0.2,0.5
				c0,0,0,0.1,0,0.1c0,0,0,0.1,0,0.1c0,0.1,0,0.2,0,0.2c0,0,0,0,0,0c0,0,0,0,0,0c0,0,0,0,0,0.2c0,0,0,0,0,0c-0.2,0-0.3,0-0.3,0
				c0,0,0,0-0.1,0c-0.1,0-0.1,0-0.2,0c-0.2,0-0.4,0-0.6-0.1c-0.3,0-0.6,0-0.9-0.1c-0.3,0-0.7,0-1-0.1c-0.5,0-1.1-0.1-1.1-0.1
				c-0.2,0-0.4,0-0.7,0c-0.1,0-0.1,0-0.2,0c0,0-0.1,0-0.1,0c0,0-0.1,0-0.2-0.1c0,0,0,0-0.1,0c0,0,0,0-0.1,0c0,0,0,0-0.1,0
				c0,0,0,0,0,0c-0.2,0-0.2,0-0.3,0c0,0-0.1,0-0.1,0c0,0-0.1,0-0.1,0c-0.1,0-0.2,0-0.2,0c-0.2,0-0.4-0.1-0.6-0.1
				c-0.2,0-0.4-0.1-0.5-0.1c-0.1,0-0.3-0.1-0.4-0.1l-0.1,0c0,0-0.1,0-0.4-0.1c-0.5-0.1-1.4-0.4-2.8-0.7c-0.8-0.2-1.5-0.3-1.6-0.3
				c-0.4-0.1-2.8-0.6-3.1-0.6c-0.2,0-0.5-0.1-0.7-0.1c-0.2,0-0.5-0.1-0.6-0.1c-0.2,0-0.4-0.1-0.7-0.1c-0.1,0-0.1,0-0.2,0
				c0,0,0,0-0.1,0c0,0,0,0,0,0l0,0c0,0,0,0,0,0c0-0.1,0-0.1,0-0.1c0,0,0-0.1,0-0.1c-0.1,0-0.2,0-0.2,0c0,0-0.1,0-0.1,0
				c0,0-0.1,0-0.1,0c0,0-0.1,0-0.1,0c0,0-0.2,0-1-0.1c0,0-0.1,0-0.1,0c0,0-0.1,0-0.1,0c0,0,0,0,0,0c0,0,0,0,0,0c0,0,0,0,0,0
				c-0.1-0.3,0-0.1-0.1-0.1h0l0,0h0l0,0l0,0c0,0,0,0,0,0c-0.1,0-0.1,0-0.2,0c-0.1,0-0.1,0-0.2,0c-0.2,0-1.7-0.3-2.1-0.3
				c-0.2,0-0.5-0.1-0.5-0.1l-0.2,0c-0.1,0-0.2,0-0.5-0.1c-0.8-0.1-2.1-0.3-4.1-0.4c-1.1-0.1-2.2-0.1-2.3-0.1c-0.3,0-1.3,0-2.3,0
				c-1,0-2,0.1-2.2,0.2c-0.3,0-0.7,0.1-0.9,0.1c-0.3,0-0.7,0.1-0.8,0.1c-0.3,0-0.7,0.1-1.1,0.2c-0.4,0.1-0.7,0.1-0.7,0.2
				c0,0-0.2,0.1-0.3,0.1c-0.1,0-0.2,0.1-0.3,0.1c0,0,0,0-0.1,0c-0.1,0-0.1,0-0.2,0.1c0,0-0.1,0-0.1,0c0,0-0.1,0-0.1,0
				c0,0-0.1,0-0.1,0.1c0,0,0,0.1,0,0.1c0,0,0,0,0,0c0,0-0.1,0-0.1,0c0,0-0.1,0-0.1,0c0,0-0.1,0-0.1,0c0,0-0.1,0-0.1,0
				c0,0-0.1,0-0.2,0c0,0-0.1,0-0.2,0.1c-0.1,0-0.2,0-0.3,0.1c0,0-0.1,0-0.1,0c-0.1,0-1,0.3-1.2,0.4c-0.1,0-0.3,0.1-0.3,0.1l-0.1,0
				c0,0-0.1,0.1-0.3,0.1c-0.4,0.2-1.2,0.4-2.3,0.9c-0.6,0.2-1.2,0.5-1.3,0.5c-0.3,0.1-2.2,0.9-2.5,1.1c-0.1,0.1-0.4,0.2-0.5,0.2
				c-0.2,0.1-0.4,0.2-0.5,0.2c-0.2,0.1-0.4,0.2-0.6,0.3c-0.2,0.1-0.4,0.2-0.4,0.2c0,0-0.1,0.1-0.2,0.1c-0.1,0-0.1,0.1-0.1,0.1
				c0,0-0.1,0.1-0.8,0.4c-0.1,0.1-0.2,0.1-0.1,0.1c0,0,0,0,0,0c-0.1,0-0.1,0.1-0.1,0.1c0,0-0.1,0.1-0.2,0.1
				c-0.1,0.1-0.1,0.1-0.1,0.1c-0.3,0-0.6,0-1,0c-0.9,0-1.8,0.1-2.8,0.2c-0.9,0.1-1.8,0.3-2.6,0.5c-1.4,0.3-2.8,0.7-3,0.8
				c-0.2,0.1-0.4,0.1-0.4,0.1c0,0,0,0-0.1,0c0,0-0.2,0.1-0.4,0.1c-0.1,0-0.4,0.1-0.5,0.2c-0.4,0.1-0.4,0.1-0.1,0.1
				c0.1,0,0.4-0.1,0.5-0.2c0.1,0,0.4-0.1,0.4-0.1c0,0,0.2-0.1,0.4-0.1c0.1,0,0.4-0.1,0.5-0.1c0,0,0.3-0.1,0.5-0.1
				c0.1,0,0.5-0.1,0.6-0.2c0.1,0,0.5-0.1,0.8-0.2c0.3-0.1,0.4-0.1,0.6-0.1c0.2,0,0.3-0.1,0.6-0.1c0.1,0,0.3,0,0.4-0.1
				c0,0,0.1,0,0.3-0.1c0.1,0,0.3-0.1,0.5-0.1c0.1,0,0.2,0,0.3-0.1c0.1,0,0.2,0,0.4-0.1c0.1,0,0.3,0,0.4-0.1c0.1,0,0.3,0,0.4,0
				c0.3,0,0.6-0.1,0.9-0.1c0.3,0,0.6,0,0.8,0c0.5,0,1,0,1.3,0c0.1,0,0.3,0,0.4,0c0.1,0,0.3,0,0.4,0c0.2,0,0.4,0,0.5,0
				c0.1,0,0.3,0,0.4,0c0.1,0,0.2,0,0.4,0c0.1,0,0.2,0,0.4-0.1c0.1,0,0.2,0,0.2,0c0.1,0,0.2,0,0.3-0.1c0.1,0,0.3,0,0.4-0.1
				c0.1,0,0.1,0,0.2-0.1c0.1,0,0.1,0,0.2-0.1c0.1,0,0.3-0.1,0.4-0.1c0.1-0.1,0.3-0.1,0.5-0.2c0.6-0.2,1.3-0.5,2-0.9
				c0.4-0.2,0.8-0.4,1.2-0.5c0.4-0.2,0.9-0.4,1.3-0.6c0.5-0.2,0.9-0.4,1.5-0.6c0.5-0.2,1-0.4,1.6-0.6c0.5-0.2,1.1-0.4,1.6-0.5
				c0,0,0,0,0.1,0.1c0,0,0.1,0.2,0.2,0.3c0.2,0.2,0.2,0.2,0.2,0.2c0,0,0,0,0-0.1c0,0,0-0.1,0-0.1c0,0,0,0,0,0c0,0-0.1-0.1-0.1-0.2
				c0,0-0.1-0.1-0.1-0.1c0,0,0.1,0,0.1,0c0.2,0,0.3-0.1,0.4-0.1c0.1,0,0.3-0.1,0.4-0.1c0.3-0.1,0.6-0.1,0.8-0.2
				C78,8.2,78.4,8.1,78.7,8C78.9,8,79.1,8,79.2,8c0.1,0,0.2,0,0.2,0c0.2,0,0.5-0.1,0.8-0.1c0.2,0,0.4,0,0.6-0.1c0.2,0,0.5,0,0.7-0.1
				c0.3,0,0.5,0,0.8,0c0.3,0,0.6,0,0.9,0c0.1,0,0.3,0,0.5,0c0.2,0,0.3,0,0.5,0c0.3,0,0.6,0,0.9,0c2.5,0.1,4.9,0.4,5.5,0.5
				c0.3,0,0.7,0.1,1.2,0.1c0.4,0.1,0.8,0.1,1.2,0.2c0.3,0,0.6,0.1,0.8,0.1c0,0,0,0,0,0c0,0.1,0,0.1,0,0.1c0,0.1,0,0.1-0.1,0.1
				c0,0,0,0,0,0c0,0,0,0.1,0,0.1c0,0,0,0.1,0,0.2c0,0.1,0,0.1,0,0.1c0,0,0-0.1,0.1-0.2c0,0,0-0.1,0.1-0.1c0,0,0-0.1,0-0.1
				c0,0,0-0.1,0.1-0.2c0,0,0,0,0-0.1c0.5,0.1,0.9,0.1,1.2,0.2c1.4,0.2,4.3,0.7,4.4,0.8c0.1,0,0.5,0.1,0.8,0.1c0.3,0,0.5,0.1,0.6,0.1
				c0.1,0,0.6,0.1,3.6,0.7c0.5,0.1,0.9,0.2,0.5,0.1c0,0,0,0,0.1,0c0.3,0.1,0.4,0.1,0.5,0.1c0.1,0,0.4,0.1,0.7,0.2
				c-0.2,0-0.6,0-1.1,0c-0.7,0-1.6,0.1-2.6,0.1c-1.9,0.1-3.8,0.3-3.9,0.3c-0.2,0-0.5,0.1-1.1,0.1c-0.4,0-2.1,0.2-3.7,0.4
				c-1.6,0.2-3.5,0.4-4.2,0.5c-0.5,0.1-1.7,0.2-2.6,0.3c-0.9,0.1-1.7,0.2-1.7,0.2c0,0-0.1,0-0.2,0c-0.1,0-0.3,0-0.4,0.1
				c-0.3,0-0.7,0.1-0.8,0.1c-0.3,0-0.7,0.1-1,0.1c-0.3,0-0.7,0.1-1,0.1c-0.3,0-0.9,0.1-1.2,0.1c-0.5,0.1-2.6,0.3-4.6,0.5
				c-0.5,0-0.9,0.1-0.9,0.1c-0.2,0-0.7,0.1-2.1,0.2c-0.4,0-1,0.1-1.4,0.1c-0.5,0-0.9,0-1,0.1c-0.2,0-0.9,0-1.2,0c-0.2,0-0.9,0-1.4,0
				c-0.5,0-1.2,0-1.6-0.1c-0.6,0-1.5-0.1-2.3-0.2c-0.8-0.1-1.6-0.2-1.9-0.2C62,14,61.7,14,61.3,14c-0.2,0-0.5,0-0.5,0c0,0,0,0-0.2,0
				c-0.2,0-0.4,0-0.4,0c0,0-0.2,0-0.4,0c-0.2,0-0.7,0-1.1,0.1c-0.2,0-0.8,0.1-1.6,0.3c-0.8,0.2-1.8,0.5-2.9,0.8
				c-1.1,0.4-2.3,0.8-3.4,1.3c-1.2,0.4-2.2,1-3.2,1.4c-0.4,0.2-0.9,0.4-1.3,0.5c-0.2,0.1-0.4,0.1-0.6,0.2c-0.2,0.1-0.4,0.1-0.6,0.1
				c-0.7,0.2-1.3,0.3-1.5,0.4c-0.2,0-0.3,0.1-0.4,0.1c-0.1,0-0.1,0-0.1,0c0,0,0,0-0.2,0c0,0-0.1,0-0.2,0.1c-0.1,0-0.2,0.1-0.3,0.1
				c-0.2,0-0.5,0.1-0.7,0.2c-0.1,0-0.1,0-0.2,0c0,0,0.1-0.1,0.1-0.1c0.1-0.1,0.2-0.1,0.2-0.2c0.1-0.1,0.3-0.2,0.3-0.2
				c0.1-0.1,0.2-0.2,0.3-0.3c0.1,0,0.1-0.1,0.2-0.1c0,0,0,0,0,0c0,0,0,0,0,0c0,0,0.1,0,0.1,0c0,0,0.1,0,0.1,0c0.1,0,0.2,0,0.3,0
				c0.2,0,0.3-0.1,0.3-0.1c0,0,0.1,0,0.1,0c0,0,0.1,0,0.1,0c0,0,0.1,0,0.7-0.2c0.1,0,0.2-0.1,0.1-0.1c0,0,0,0,0,0c0,0,0.1,0,0.1-0.1
				c0,0,0.1,0,0.2-0.1c0.1,0,0.1-0.1,0.1-0.1c0,0,0,0-0.1,0c0,0-0.1,0-0.1,0c0,0,0,0,0,0c0,0-0.1,0-0.1,0c0,0-0.1,0-0.2,0
				c-0.1,0-0.1,0-0.1,0c0,0-0.1,0-0.1,0c-0.1,0-0.2,0-0.3,0.1c-0.1,0-0.1,0-0.1,0c0,0,0,0-0.1,0c0,0-0.1,0-0.1,0
				c0.1-0.1,0.4-0.2,0.4-0.2c0.1,0,0.1-0.1,0.1-0.1l0,0c0,0,0.1,0,0.1-0.1c0.2-0.1,0.6-0.3,1.1-0.5c0.3-0.1,0.6-0.2,0.7-0.2
				c0.1,0,0.4-0.1,0.7-0.2c0.3-0.1,0.6-0.2,0.6-0.2c0.1,0,0.2-0.1,0.3-0.1c0.1,0,0.2-0.1,0.2-0.1c0.1-0.1,0.5-0.2,0.5-0.2
				c0,0,0.1,0,0.1,0c0,0,0.1,0,0.1,0c0,0,0.1,0,0.4-0.2c0.1,0,0.1-0.1,0.1,0c0,0,0,0,0,0c0,0,0,0,0.1,0c0,0,0.1,0,0.1,0
				c0.1,0,0.1,0,0.1-0.1c0,0,0,0,0,0c0,0,0,0,0,0c0,0,0,0,0,0c0,0,0,0-0.1,0c0,0-0.1,0-0.1,0c0,0-0.1,0-0.1,0c0,0,0,0-0.1,0
				c0,0-0.1,0-0.2,0c0,0-0.1,0-0.1,0c0,0,0,0-0.1,0c0,0,0,0-0.1,0c0,0,0,0-0.1,0c0,0-0.1,0-0.1,0c0,0-0.2,0.1-0.3,0.1
				c-0.2,0.1-0.3,0.1-0.3,0.1c0,0,0,0-0.1,0c0,0-0.2,0.1-0.3,0.1c-0.1,0-0.3,0.1-0.4,0.1c0,0-0.2,0.1-0.2,0.1
				c-0.1,0-0.2,0.1-0.2,0.1c0,0-0.1,0.1-0.1,0.1c0,0-0.1,0-0.1,0c0,0-0.1,0-0.1,0c0,0-0.1,0-0.1,0c0,0-0.2,0.1-0.4,0.2
				c0,0-0.1,0-0.1,0c0,0-0.1,0-0.2,0.1c-0.1,0-0.2,0.1-0.2,0.1c0,0-0.1,0-0.1,0.1c0,0-0.1,0-0.1,0.1c0,0-0.1,0.1-0.1,0.1
				c-0.1,0-0.3,0.1-0.3,0.2c0,0,0,0-0.1,0.1c0,0,0,0,0,0c0,0,0,0,0,0c0,0,0,0,0,0c0,0,0,0,0,0c0,0-0.1,0-0.1,0c0,0-0.2,0.1-0.4,0.2
				c-0.2,0.1-0.4,0.2-0.6,0.3c0,0,0,0-0.1,0C43.3,18,43.1,18,43,18c0,0-0.1,0-0.1,0c0,0,0,0,0,0c0,0,0,0-0.1,0c0,0-0.1,0-0.1,0
				c0,0,0,0,0,0l0,0c0,0-0.1,0.1-0.1,0.1c-0.1,0.1-0.1,0.1-0.2,0.1c0,0-0.1,0-0.1,0.1c0,0-0.2,0.2-0.4,0.3c-0.1,0.1-0.2,0.1-0.3,0.2
				c-0.1,0.1-0.1,0.1-0.2,0.2c0,0-0.1,0.1-0.1,0.1c-0.1,0.1-0.1,0.1-0.1,0.2c0,0,0,0.1,0,0.1c0,0,0,0.1,0,0.1c0,0,0,0.1,0,0.1
				c0,0,0,0.1,0,0.2c0,0,0,0.1,0,0.1c0,0,0,0.1,0,0.1c0,0,0,0.1,0,0.2c0,0.1,0,0.3,0,0.6c0,0.1,0,0.1,0,0.1c0,0,0,0.1,0,0.3
				c0,0.1,0,0.3,0,0.3c0,0,0,0.1,0,0.2c0,0,0,0.1,0,0.2c0,0.1,0,0.2,0,0.2c0,0.2,0,0.5,0,0.6c0,0,0,0.1,0,0.1c0,0,0,0.1,0,0.1
				c0,0,0,0,0,0c0,0,0,0,0,0c0,0,0,0,0,0c0,0,0,0.1,0,0.1c0,0.1-0.1,1-0.2,1.6c0,0.1,0,0.3,0,0.3c0,0.1,0,0.2,0,0.2c0,0,0,0.1,0,0.1
				c0,0,0,0,0,0c0,0,0,0,0,0.1c0,0,0,0,0,0c0,0,0,0,0,0c0,0,0,0,0,0c0,0,0,0,0,0c0,0,0,0,0,0c0,0,0,0,0,0c0,0,0,0,0,0c0,0,0,0,0,0
				l0,0l0,0c0,0,0,0,0,0c0,0,0,0,0,0c0,0,0,0,0,0c0,0,0,0,0-0.1c0,0,0,0,0-0.1c0,0,0-0.1,0-0.1c0,0,0,0,0,0c0,0,0,0,0-0.1
				c0,0,0-0.1,0-0.1c0,0,0,0,0-0.1c0,0,0-0.1,0-0.1c0-0.1,0-0.1,0-0.2c0,0,0,0,0-0.1c0-0.1,0.1-0.7,0.1-0.9c0-0.1,0-0.2,0-0.2l0-0.1
				c0,0,0-0.1,0-0.2c0.1-0.3,0.1-0.9,0.2-1.8c0.1-0.5,0.1-0.9,0.1-1c0-0.1,0-0.2,0-0.4c0-0.1,0-0.2,0-0.3c0-0.1,0-0.1,0-0.1l0-0.1
				c0,0,0,0,0-0.1c0,0,0,0,0,0c0,0,0,0,0,0c0.2,0,0.5-0.1,0.7-0.1c0.1,0,0.2,0,0.3-0.1c0.1,0,0.2,0,0.2,0c0,0,0.3-0.1,0.5-0.1
				c0.2,0,0.5-0.1,0.7-0.2c0,0,0.3-0.1,0.7-0.2c0.2,0,0.7-0.2,0.9-0.2c0.1,0,0.3-0.1,0.4-0.1c0.2,0,0.4-0.1,0.6-0.2
				c0.3-0.1,0.5-0.2,0.7-0.3c0.2-0.1,0.4-0.2,0.7-0.3c0.2-0.1,0.3-0.1,0.5-0.2c0.1-0.1,0.5-0.2,1-0.5c0.5-0.2,1.2-0.5,1.9-0.8
				c0.7-0.3,1.5-0.6,2.1-0.8c0.7-0.2,1.2-0.4,1.6-0.5c0.7-0.2,1.5-0.4,1.7-0.4c0.2,0,0.3-0.1,0.5-0.1c0.1,0,0.3-0.1,0.5-0.1
				c0.3,0,0.7-0.1,1.2-0.2c0.3,0,0.7,0,1.1,0c0.4,0,0.8,0,1.2,0.1c0.9,0.1,1.9,0.2,3,0.4c0.6,0.1,1.1,0.1,1.8,0.2
				c0.6,0,1.3,0.1,2,0.1c0.7,0,1.4,0,2.2,0c0.8,0,1.5,0,2.4-0.1c1.8-0.1,3.6-0.3,5-0.4C79,14.1,80,14,80.3,14c1-0.1,4.3-0.5,7.7-0.9
				c1.7-0.2,3.3-0.4,4.6-0.6c1.3-0.2,2.3-0.3,2.7-0.3c0.9-0.1,2.3-0.3,3.1-0.4c1-0.1,2.3-0.2,2.8-0.3
				C102.2,11.4,103.7,11.3,104.9,11.3z M74.9,8.7c-0.2,0.1-0.4,0.1-0.6,0.2c-0.6,0.2-1.5,0.5-1.7,0.7c-0.1,0-0.6,0.3-0.8,0.4
				c-0.1,0.1-0.6,0.3-0.9,0.4c-0.4,0.2-0.8,0.4-1.1,0.5c-0.8,0.4-2.4,1.1-2.8,1.3c-0.2,0.1-0.5,0.2-0.7,0.3c-0.1,0-0.1,0.1-0.2,0.1
				c-0.1,0-0.1,0.1-0.1,0.1c0,0,0,0-0.1,0.1c-0.1,0-0.2,0.1-0.2,0.1c0,0-0.1,0-0.2,0.1c-0.1,0-0.2,0.1-0.3,0.1
				c-0.1,0-0.3,0.1-0.4,0.1c-0.1,0-0.2,0-0.4,0.1c-0.2,0-0.5,0.1-0.8,0.1c-0.1,0-0.2,0-0.2,0c-0.1,0-0.2,0-0.3,0c-0.2,0-0.4,0-0.6,0
				c0,0,0,0,0,0c0,0,0,0,0.1,0c0.1,0,0.2,0,0.2-0.1c0.1,0,0.2-0.1,0.2-0.1c0,0,0.1,0,0.1-0.1c0.1,0,0.2-0.1,0.3-0.1
				c0.1,0,0.2-0.1,0.2-0.1c0,0,0.1,0,0.1,0c0.1,0,0.1,0,0.1,0c0,0,0.1,0,0.2-0.1c0.1,0,0.1,0,0.1-0.1c0,0,1.2-0.5,1.3-0.6
				c0,0,0.1,0,0.2-0.1c0.1,0,0.3-0.2,0.6-0.3c0.3-0.1,0.6-0.3,0.7-0.3c0.1,0,0.3-0.1,0.4-0.2c0.1-0.1,0.3-0.1,0.3-0.1
				c0,0,0.2-0.1,0.2-0.1c0.1,0,0.1,0,0.2-0.1c0.1,0,0.1-0.1,0.2-0.1c0.1,0,0.1-0.1,0.2-0.1c0,0,0.1-0.1,0.3-0.1
				c0.1-0.1,0.3-0.1,0.5-0.2c0.1,0,0.1-0.1,0.1-0.1c0,0,0.1-0.1,0.3-0.1c0.1-0.1,0.4-0.1,0.4-0.2c0,0,0.1-0.1,0.2-0.1
				c0,0,0.1-0.1,0.2-0.1c0.1,0,0.2-0.1,0.3-0.1c0.2-0.1,0.6-0.2,0.7-0.3c0.1,0,0.1-0.1,0.2-0.1c0,0,0.1,0,0.1,0c0,0,0,0,0,0
				c0,0,0.1,0,0.1,0c0,0,0,0,0.1,0c0,0,0.1,0,0.2-0.1c0.1,0,0.4-0.2,0.8-0.3c0.4-0.2,0.9-0.3,1.2-0.5c0.3-0.1,0.6-0.3,0.7-0.3
				c0.1,0,0.1,0,0.1,0c0,0,0,0,0,0c0,0,0.1,0,0.1,0c0,0,0,0,0.1,0c0,0,0,0,0,0c0.1,0.2,0.3,0.3,0.5,0.6c0,0,0,0,0,0
				C75.1,8.6,75,8.6,74.9,8.7z M94.1,8C94,8.1,94,8.1,94,8.2c-0.4-0.1-0.6-0.1-0.7-0.1C93.1,8,92.9,8,92.5,8c-0.3,0-1.6-0.2-2.7-0.3
				c-0.3,0-0.6-0.1-0.9-0.1c-0.3,0-0.6-0.1-0.9-0.1c-0.3,0-0.6,0-0.8-0.1c-0.2,0-0.4,0-0.5,0c-0.2,0-0.5,0-0.9-0.1
				c-0.2,0-0.4,0-0.6,0c-0.2,0-0.4,0-0.5,0c-0.3,0-0.7,0-0.9,0c-0.1,0-0.2,0-0.3,0c-0.1,0-0.1,0-0.1,0c0,0-0.2,0-0.4,0
				c-0.2,0-0.5,0-0.6,0c-0.3,0-0.5,0-0.8,0.1c-0.3,0-0.5,0.1-0.8,0.1c-0.3,0-0.7,0.1-0.9,0.1c-0.2,0-0.7,0.1-1.3,0.2
				c-0.6,0.1-1.4,0.3-2.1,0.5c-0.2,0-0.3,0.1-0.5,0.1c-0.1,0-0.2,0.1-0.2,0.1c0,0-0.1,0-0.3,0.1c-0.1-0.1-0.1-0.2-0.1-0.2
				c0,0-0.1-0.1-0.2-0.2c0,0-0.1-0.1-0.1-0.1c0,0,0,0,0,0l0,0c0,0,0,0,0,0c0,0,0,0,0,0c0,0,0,0,0,0c0,0,0,0,0,0l0,0c0,0,0,0,0,0
				c0,0,0,0,0,0c0,0,0.1,0,0.2,0c0.1,0,0.2,0,0.2,0c0.1,0,0.2,0,0.3-0.1c0.1,0,0.2,0,0.3,0c0,0,0.6-0.1,1.1-0.2
				c0.5-0.1,1.1-0.2,1.2-0.2c0.1,0,0.2,0,0.3,0c0.1,0,0.6-0.1,1.1-0.1c0.5,0,1-0.1,1.3-0.1c0.2,0,0.5,0,0.8,0c0.3,0,0.5,0,0.5,0
				c0,0,0.3-0.1,0.4,0c0.1,0,0.2,0,0.3,0c0.1,0,0.2,0,0.3,0c0.1,0,0.3,0,0.4,0c0.2,0,0.8,0,1.4,0c0.2,0,0.3,0,0.3,0
				c0.1,0,0.2,0,0.6,0c0.3,0,0.6,0,0.7,0c0.1,0,0.3,0,0.4,0c0.1,0,0.3,0,0.4,0c0.2,0,0.4,0,0.5,0c0.4,0,1.1,0.1,1.3,0.1
				c0.1,0,0.2,0,0.3,0c0.1,0,0.2,0,0.2,0c0,0,0,0,0.1,0c0.1,0,0.1,0,0.1,0c0,0,0.1,0,0.1,0c0.1,0,0.2,0,0.3,0c0.1,0,0.7,0.1,1.4,0.2
				c0.7,0.1,1.5,0.2,2.1,0.3l0.1,0l0.1,0l0,0l0,0l0,0l0,0l0,0l0,0l0,0c0,0,0,0.1,0,0C94.1,7.9,94.1,7.9,94.1,8z M106,10.6
				c-0.3-0.1-0.6-0.2-1-0.3c-0.4-0.1-0.8-0.2-0.8-0.2c0,0,0,0-0.1,0c0,0-0.1,0-0.2,0c-0.1,0-0.2,0-0.3-0.1l2.5,0.4
				c-0.3-0.1-0.5-0.1-0.8-0.2c0,0,0,0,0,0c0,0,0.1,0,0.1,0c0,0,0,0,0.1,0c0,0,0.1,0,0.2,0.1c0.1,0,0.5,0.1,0.9,0.2l-0.5-0.1
				c0.9,0.2,1.5,0.3,1.5,0.3l0.5,0l-0.2,0c0.1,0,0.2,0,0.3,0c0.1,0,0.2,0,0.3,0c0.1,0,0.2,0,0.3,0.1c-0.1,0-0.1,0-0.2,0
				c0,0-0.1,0-0.1,0l0,0l-0.4,0l0.1,0c-0.2,0-0.4,0-0.8,0c-0.2,0-0.5,0-0.6,0c0,0,0,0,0,0c0,0,0,0-0.1,0
				C106.5,10.8,106.3,10.7,106,10.6z M121.3,16.1C121.3,16.1,121.3,16.1,121.3,16.1C121.3,16.1,121.3,16.1,121.3,16.1
				c-0.1,0-0.1,0-0.2,0c-0.1,0-0.1,0-0.2,0c-0.1,0-0.2,0-0.3,0c0,0,0,0,0,0c0,0,0,0,0,0c0,0,0,0-0.1,0c-0.1,0-0.1-0.1-0.2-0.1
				c-0.1-0.1-0.3-0.2-0.4-0.3c-0.1-0.1-0.2-0.1-0.2-0.1l-0.1,0c0,0-0.1,0-0.2-0.1c-0.3-0.2-0.8-0.4-1.5-0.7c-0.1,0-0.2-0.1-0.3-0.1
				c-0.1,0-0.1-0.1-0.2-0.1c-0.1-0.1-0.1-0.2-0.1-0.2c0,0,0-0.1-0.1-0.1c0,0,0-0.1-0.1-0.1c0,0,0-0.1-0.1-0.1
				c-0.1-0.1-0.2-0.3-0.3-0.4c-0.1-0.2-0.2-0.3-0.3-0.4c0-0.1-0.1-0.1-0.1-0.2c0,0,0,0,0,0c0,0,0,0,0,0c0,0,0,0,0.1-0.1
				c0,0,0.1,0,0.1-0.1c0.1,0,0.1,0,0.1,0c0.2-0.1,0.7-0.2,0.7-0.2c0,0,0.1,0,0.1,0c0,0,0.1,0,0.1,0c0,0,0.1,0,0.6-0.1
				c0.1,0,0.1,0,0.1,0c0,0,0,0,0,0c0,0,0.1,0,0.1,0c0,0,0.1,0,0.1,0c0.1,0,0.1,0,0.1-0.1c0,0,0,0-0.1,0c0,0,0,0,0,0c0,0,0,0,0,0
				c0,0-0.1,0-0.1,0c0,0-0.1,0-0.2,0c-0.1,0-0.1,0-0.1,0c0,0-0.1,0-0.1,0c-0.1,0-0.1,0-0.2,0c-0.1,0-0.1,0-0.1,0c0,0,0,0-0.1,0
				c0,0-0.1,0-0.1,0c0,0-0.1,0-0.1,0c0,0-0.1,0-0.1,0c0,0-0.2,0-0.5,0.1c-0.1,0-0.2,0-0.3,0.1c-0.1,0-0.2,0-0.2,0.1
				c0,0-0.1,0-0.1,0.1c0,0,0,0-0.1,0.1c0,0-0.1,0.1-0.1,0.1c0,0.1,0,0.1,0,0.2c0,0.1,0.1,0.1,0.1,0.2c0.1,0.2,0.2,0.3,0.3,0.4
				c0,0.1,0.1,0.2,0.2,0.2c0.1,0.1,0.1,0.2,0.1,0.2c0,0,0.1,0.1,0.1,0.1c0,0,0,0.1,0.1,0.1c0,0,0.1,0.1,0.1,0.1c0,0,0,0.1,0.1,0.1
				c0,0,0.1,0.1,0.1,0.2c0.1,0.1,0.2,0.2,0.3,0.2c0.1,0,0.1,0,0.1,0c0,0,0.1,0,0.2,0.1c0.1,0,0.2,0.1,0.3,0.1c0,0,0.1,0,0.1,0.1
				c0,0,0.1,0,0.2,0.1c0.1,0,0.1,0.1,0.2,0.1c0.1,0.1,0.4,0.2,0.5,0.2c0,0,0.1,0,0.1,0c0,0,0.1,0,0.1,0c0,0,0,0,0,0c0,0,0,0,0,0
				c0,0,0,0,0,0c0,0,0.1,0,0.1,0.1c0,0,0.3,0.1,0.5,0.3c0.1,0.1,0.2,0.2,0.4,0.2c0,0,0.1,0.1,0.1,0.1c-0.2,0-0.2,0,0,0
				c0,0,0,0,0.1,0c0,0,0,0,0,0c0,0,0.1,0,0.1,0.1l0,0l0,0c0,0,0,0,0,0c0.2,0,0.5,0,0.5,0c0,0,0.1,0,0.1,0
				C121.2,16.1,121.2,16.1,121.3,16.1C121.2,16.1,121.2,16.1,121.3,16.1c0,0.1,0,0.1,0,0.1c0,0,0,0,0,0.1c0,0,0,0.1,0,0.1
				c0,0,0,0,0,0l0,0.1c0,0,0,0.1,0,0.1c0,0,0,0.2,0,0.4c0,0.1,0,0.4,0,0.5c0,0.1,0,0.4,0,0.6c0,0.4,0,0.5-0.1,0.9c0,0.1,0,0.2,0,0.3
				c0,0.2,0,1,0,1.8c0,0.4,0,0.9,0,1.3c0,0.4-0.1,0.8-0.1,1c0,0,0,0,0,0c0,0,0,0,0,0c0,0,0,0-0.1,0c-0.1,0-0.2,0.1-0.3,0.1
				c-0.2,0.1-0.4,0.1-0.4,0.1l-0.3,0.1c-0.1,0-0.4,0.2-1,0.4c-0.5,0.2-1.1,0.4-1.8,0.6c-0.4,0.1-0.7,0.3-1.1,0.4c-0.1,0-0.1,0-0.2,0
				c0,0-0.1,0-0.1,0c-0.1,0-0.2,0-0.3,0c-0.1,0-0.2,0-0.3,0c0,0,0,0,0,0c0-0.1,0-0.2,0-0.3c0-0.1,0-0.3,0-0.4c0-0.3,0-0.6,0-0.9
				c0-0.6,0-1.2,0-1.9c0-0.5,0-1.1-0.1-1.6c0-0.3-0.1-0.5-0.1-0.7c0-0.1,0-0.1-0.1-0.2c0-0.1,0-0.1-0.1-0.2c0-0.1-0.1-0.2-0.1-0.3
				c-0.3-0.8-0.7-1.3-0.8-1.4c-0.2-0.2-0.6-0.8-1.2-1.3c-0.3-0.3-0.7-0.5-1.2-0.8c-0.2-0.1-0.5-0.2-0.7-0.3
				c-0.2-0.1-0.5-0.2-0.8-0.3c-1-0.3-2.1-0.3-3-0.2c-0.9,0.1-1.5,0.3-1.7,0.4c-0.1,0-0.3,0.1-0.4,0.2c-0.2,0.1-0.3,0.2-0.5,0.2
				c-0.3,0.2-0.6,0.4-0.8,0.5c-0.3,0.2-0.5,0.4-0.8,0.6c-0.2,0.2-0.4,0.4-0.5,0.5c-0.2,0.2-0.4,0.5-0.6,0.8c-0.2,0.3-0.4,0.7-0.5,1
				c-0.3,0.7-0.3,1.3-0.4,1.3c0,0.1-0.1,0.4-0.1,0.6c0,0.2,0,0.4,0,0.5c0,0.1,0,0.2,0,0.6c0,0.2,0,0.5,0.1,0.8
				c0,0.2,0.1,0.4,0.1,0.6c0,0.1,0.1,0.2,0.1,0.4c0,0.1,0,0.1,0,0.2c0,0,0,0.1,0,0.1c0,0,0,0.1,0,0.1c0.1,0.4,0.2,0.7,0.1,0.4
				c0,0,0,0,0,0.1c0.1,0.2,0.1,0.3,0.1,0.4c0,0.1,0.1,0.2,0.1,0.4c-0.1,0-0.2,0-0.2,0c-0.5,0-0.5,0-0.7,0c0,0,0,0,0.2,0
				c0.1,0,0.2,0,0.2,0c0,0,0,0,0.1,0c0.1,0,0.3,0,0.5,0c0-0.1,0-0.2-0.1-0.3c0-0.1-0.1-0.3-0.1-0.4c0-0.1-0.1-0.3-0.1-0.4
				c0-0.1-0.1-0.3-0.1-0.4c0,0,0-0.1,0-0.1c0,0,0,0,0,0c0,0,0,0,0,0c0,0,0-0.1,0-0.1c0,0,0-0.1,0-0.2c0-0.1,0-0.2-0.1-0.3
				c0-0.1-0.1-0.3-0.1-0.5c0-0.2,0-0.4-0.1-0.6c0-0.3,0-0.6,0-0.6c0-0.1,0-0.2,0-0.4c0-0.2,0-0.3,0-0.4c0-0.1,0-0.3,0.1-0.6
				c0-0.2,0.1-0.4,0.1-0.5c0,0,0.1-0.3,0.2-0.7c0.1-0.4,0.4-0.9,0.6-1.3c0.3-0.4,0.7-0.9,1-1.1c0.3-0.3,0.6-0.5,0.6-0.5
				c0.1-0.1,0.2-0.2,0.5-0.4c0.1-0.1,0.4-0.2,0.7-0.4c0.2-0.1,0.4-0.2,0.6-0.3c0.2-0.1,0.5-0.1,0.7-0.2c0.5-0.1,1-0.2,1.5-0.2
				c0.5,0,0.9,0,1.1,0c0.2,0,0.4,0,0.7,0.1c0.3,0.1,0.6,0.1,0.8,0.2c0.2,0.1,0.5,0.2,0.7,0.3c0.2,0.1,0.3,0.2,0.3,0.2
				c0,0,0.1,0.1,0.3,0.1c0.2,0.1,0.3,0.2,0.4,0.3c0.2,0.1,0.3,0.2,0.5,0.4c0.2,0.1,0.3,0.3,0.5,0.4c0.1,0.1,0.4,0.4,0.5,0.5
				c0.1,0.1,0.3,0.4,0.6,0.8c0.1,0.2,0.2,0.4,0.4,0.7c0.1,0.1,0.1,0.3,0.2,0.4c0.1,0.1,0.1,0.3,0.1,0.4c0,0.1,0.1,0.3,0.1,0.4
				c0,0.1,0,0.1,0,0.1c0,0.1,0.1,0.4,0.1,1.2c0,0.5,0,1.2,0,1.4c0,0.1,0,0.5,0,0.7c0,0.1,0,0.5,0,0.8c0,0.3,0,0.7,0,0.9
				c0,0.1,0,0.1,0,0.2c0,0,0,0.1,0,0.1c0,0,0,0.1,0,0.1c0.1,0,0.1,0,0.2,0c0.1,0,0.1,0,0.2,0c0.1,0,0.1,0,0.2,0c0.1,0,0.2,0,0.4,0
				c0.1,0,0.2-0.1,0.4-0.1c0.4-0.1,0.8-0.3,1-0.4c0.2-0.1,0.4-0.2,0.6-0.2c0.1,0,0.3-0.1,0.3-0.1c0,0,0,0,0.1,0
				c0.1,0,0.2-0.1,0.2-0.1c0,0,0.1,0,0.2-0.1c0.1,0,0.4-0.1,0.6-0.2c0.1,0,0.5-0.2,1-0.3c0.2-0.1,0.4-0.1,0.6-0.2c0,0,0,0,0,0
				c0,0,0,0,0,0.1c0,0,0,0.1,0,0.1c0,0,0,0,0,0c0,0,0,0.1,0,0.1c0,0,0,0,0,0c0,0,0,0,0,0c0,0,0,0,0,0c0,0,0,0,0,0c0,0,0,0,0,0
				c0,0,0,0,0,0.1c0,0,0,0,0,0.1c0,0,0,0,0,0c0,0,0,0,0,0c0,0,0,0,0,0c0,0,0,0-0.1,0c-0.1,0-0.1,0-0.2,0c0,0-0.1,0-0.1,0
				c0,0-0.1,0-0.1,0c0,0,0,0-0.1,0c0,0,0,0,0,0c0,0,0,0,0,0c0,0,0,0-0.1,0c0,0-0.1,0-0.2,0c0,0,0,0,0,0c0,0,0,0-0.1,0
				c0,0-0.1,0-0.1,0c0,0,0,0-0.1,0c0,0,0,0-0.1,0c0,0-0.1,0-0.1,0c-0.1,0-0.2,0-0.2,0c0,0,0,0,0,0c0,0,0,0,0,0c0,0,0,0,0,0
				c0,0,0,0,0,0s0,0,0,0c0,0,0,0,0,0c0,0-0.4,0-0.6,0.1c-0.1,0-0.2,0-0.2,0c0,0,0,0,0,0c0,0,0,0,0,0c0,0,0,0,0,0c0,0,0,0,0,0
				c0,0,0,0,0,0c0,0,0,0,0,0c0,0,0,0,0,0c0,0,0,0,0,0c0,0,0,0,0,0c0,0,0,0,0,0c0,0,0,0,0,0c0,0,0,0,0,0c0,0,0,0,0.1,0c0,0,0,0,0,0
				c0,0,0.3,0,0.3,0c0,0,0.1,0,0.1,0l0,0c0,0,0,0,0.1,0c0.1,0,0.3,0,0.6,0c0.2,0,0.3,0,0.4,0c0,0,0.2,0,0.4,0c0.2,0,0.3,0,0.4,0
				c0,0,0,0,0,0c0,0,0,0,0,0c0,0,0,0,0.1,0c0,0,0.1,0,0.1-0.1c0,0,0,0,0,0c0,0,0,0,0-0.1c0,0,0-0.1,0-0.1c0,0,0-0.1,0-0.1
				c0,0,0-0.1,0-0.1c0-0.1,0-0.1,0-0.1c0,0,0,0,0,0c0,0,0,0,0,0c0,0,0,0,0-0.2c0,0,0-0.1,0,0c0,0,0,0,0,0c0,0,0,0,0,0c0,0,0,0,0-0.1
				c0,0,0,0,0-0.1c0,0,0,0,0,0c0.1,0,0.1,0,0.2-0.1c0.1,0,0.2,0,0.2-0.1c0,0,0,0,0.1,0c0,0,0,0,0,0c0,0,0-0.1,0-0.1
				c0-0.2,0.1-0.3,0.1-0.5c0.1-0.7,0.1-1.4,0.1-2.1c0-0.4,0-0.7,0-1.1c0-0.2,0-0.3,0-0.5c0-0.2,0-0.3,0-0.5c0-1.1,0.1-2.2,0.1-2.4
				C121.3,16.3,121.3,16.2,121.3,16.1C121.3,16.2,121.3,16.1,121.3,16.1C121.3,16.1,121.4,16.1,121.3,16.1
				C121.4,16.1,121.4,16.1,121.3,16.1C121.4,16.1,121.3,16.1,121.3,16.1z M121,16.1C121,16.1,121,16.1,121,16.1
				C121,16.1,121,16.1,121,16.1C121,16.1,121,16.1,121,16.1z M66.3,25.3c0,0-0.1,0-0.2,0c0-0.1,0-0.1,0-0.1c0,0,0,0,0-0.1
				c0-0.1,0-0.2,0-0.2c0-0.1,0.1-0.4,0.1-0.5c0,0,0-0.2,0.1-0.5c0-0.1,0.1-0.5,0.1-0.6c0-0.1,0-0.2,0-0.3c0-0.1,0-0.3,0-0.4
				c0-0.5,0-0.6,0-1.1c0-0.1,0-0.2,0-0.4c0-0.1,0-0.4-0.1-0.8c0-0.4-0.1-0.9-0.3-1.4c-0.1-0.2-0.2-0.5-0.3-0.7
				c-0.1-0.2-0.3-0.5-0.4-0.7c-0.1-0.1-0.1-0.2-0.2-0.3c0,0-0.1-0.1-0.1-0.1c0,0-0.1-0.1-0.1-0.1c-0.1-0.1-0.1-0.1-0.2-0.2
				c-0.1-0.1-0.1-0.1-0.2-0.2c-0.4-0.3-0.9-0.7-1-0.7L63.3,16l-0.2-0.1c0,0-0.1,0-0.1-0.1c-0.1,0-0.1-0.1-0.2-0.1
				c-0.2-0.1-0.5-0.2-0.8-0.3c-0.5-0.1-1-0.3-1.7-0.3c-0.2,0-0.3,0-0.5,0c-0.2,0-0.4,0-0.5,0c-0.2,0-0.4,0-0.6,0.1
				c-0.2,0-0.4,0.1-0.6,0.1c-0.2,0.1-0.4,0.1-0.6,0.2c-0.1,0-0.2,0.1-0.3,0.1c-0.1,0-0.2,0.1-0.3,0.1c-0.4,0.2-0.8,0.4-1.2,0.7
				c-0.4,0.3-0.7,0.6-1,0.9c0,0-0.1,0-0.1,0c-0.1,0-0.1,0-0.2,0c-0.1,0-0.2,0-0.2,0c0,0-0.1,0-0.1,0c-0.1,0-0.2,0.1-0.3,0.1
				c-0.1,0-0.2,0-0.2,0c0,0-0.1,0-0.1,0c-0.1,0-0.1,0-0.1,0c0,0-0.1,0-0.1,0.1c-0.1,0-0.1,0-0.1,0c0,0-0.1,0-0.2,0.1
				c-0.1,0-0.2,0.1-0.3,0.2c-0.1,0-0.1,0.1-0.2,0.1c-0.1,0-0.1,0.1-0.2,0.1C52,18.3,52,18.3,52,18.3c0,0-0.1,0-0.1,0.1
				c0,0-0.3,0.2-0.5,0.3c-0.2,0.1-0.4,0.3-0.5,0.4c-0.1,0.1-0.2,0.2-0.3,0.3c-0.1,0.1-0.2,0.2-0.2,0.2c0,0-0.1,0.1-0.1,0.2
				c0,0-0.1,0.1-0.1,0.1c0,0-0.1,0.1-0.1,0.1c0,0-0.1,0.1-0.1,0.1c0,0-0.1,0.1-0.2,0.2c-0.1,0.1-0.1,0.2-0.2,0.3
				c0,0.1-0.1,0.1-0.1,0.1c0,0,0,0.1-0.1,0.3c-0.1,0.1-0.1,0.3-0.2,0.3c0,0-0.1,0.1-0.1,0.2c0,0,0,0.1-0.1,0.2
				c0,0.1-0.1,0.2-0.1,0.2c0,0.1-0.1,0.2-0.1,0.3c0,0.1-0.1,0.2-0.1,0.3c0,0,0,0.1,0,0.1c0,0,0,0.1,0,0.1c0,0,0,0,0,0c0,0,0,0,0,0
				c0,0,0,0,0,0c0,0,0,0.1,0,0.1c0,0.1-0.1,0.3-0.1,0.6c0,0-0.1,0-0.1,0c0,0-0.1,0-0.2,0.1c-0.1,0-0.2,0.1-0.3,0.1
				c-0.1,0-0.1,0-0.1,0c0,0-0.1,0-0.2,0.1c-0.1,0-0.2,0.1-0.2,0.1c0,0-0.1,0-0.1,0c0,0-0.1,0-0.1,0.1c-0.1,0-0.1,0-0.2,0.1
				c-0.1,0-0.4,0.1-0.4,0.1c0,0-0.1,0-0.1,0c0,0-0.1,0-0.1,0c0,0,0,0,0,0c0,0,0,0,0,0c0,0,0,0,0,0c0,0-0.1,0-0.1,0
				c0,0-0.3,0.1-0.5,0.1c-0.3,0-0.6,0.1-0.8,0.1c-0.2,0-0.4,0-0.5,0c0,0-0.1,0-0.1,0c0,0,0,0,0,0c0,0,0,0,0,0c0-0.1,0-0.2,0-0.4
				c0-0.1,0-0.2,0-0.3c0,0,0-0.1,0-0.1c0,0,0,0,0,0c0,0,0,0,0,0c0,0,0,0,0-0.1c0.1-0.2,0.2-0.3,0.3-0.5c0.1-0.2,0.2-0.3,0.3-0.4
				c0.4-0.6,0.8-1.4,1-1.7c0.1-0.1,0.2-0.3,0.3-0.5c0-0.1,0.1-0.2,0.1-0.3c0-0.1,0-0.1,0.1-0.2c0,0,0-0.1,0-0.1c0,0,0-0.1,0-0.1
				c0-0.1,0-0.3-0.1-0.4c-0.1-0.1-0.2-0.3-0.4-0.3c-0.1,0-0.3-0.1-0.4-0.1c-0.1,0-0.2,0-0.4,0c-0.1,0-0.2,0-0.3,0
				c-0.1,0-0.2,0-0.3,0c-0.2,0-0.4,0.1-0.5,0.1c-0.3,0-0.5,0.1-0.5,0.1c-0.1,0-0.5,0.1-0.8,0.1c-0.1,0-0.3,0-0.4,0.1
				c-0.1,0-0.1,0-0.2,0c0,0-0.1,0-0.1,0c0,0,0,0-0.1,0c0,0-0.1,0-0.1,0c0,0,0,0,0,0c0,0,0,0-0.1,0c0,0-0.1,0-0.1,0.1
				c-0.1,0.1-0.2,0.2-0.2,0.3c0,0.1-0.1,0.3-0.1,0.4c0,0.2-0.1,0.3-0.1,0.6c-0.1,0.4-0.1,1-0.2,1.6c0,0.5-0.1,0.8,0,0.5
				c0,0,0,0,0,0.1c0,0.2,0,0.4,0,0.5c0,0.1,0,0.2,0,0.3c0,0.1,0,0.2,0,0.2c0,0,0,0.1,0,0.1c0,0,0,0.1,0,0.1c0,0.3,0.1,0.4,0.2,0.5
				c0.1,0.1,0.1,0.1,0.2,0.1c0,0,0,0,0,0c0,0,0,0,0,0c0,0-0.1,0-0.1-0.1c0-0.1-0.1-0.2-0.1-0.2c0,0,0,0,0-0.1c0-0.1,0-0.1,0-0.2
				c0-0.1,0-0.2,0-0.3c0-0.1,0-0.3,0-0.4c0-0.2,0-0.3,0-0.5c0-0.2,0-0.3,0.1-0.5c0-0.1,0-0.2,0-0.2c0,0,0-0.1,0-0.2
				c0-0.1,0-0.3,0.1-0.4c0-0.3,0.1-0.8,0.2-1.3c0-0.1,0-0.2,0-0.3c0-0.1,0-0.2,0-0.2c0-0.1,0.1-0.1,0.1-0.1c0.1-0.1,0.1-0.1,0.3-0.1
				c0.1,0,0.2,0,0.3,0c0.1,0,0.1,0,0.2,0c0.1,0,0.4-0.1,0.8-0.1c0.3,0,0.5-0.1,0.6-0.1c0,0,0.4-0.1,0.9-0.1c0.1,0,0.3,0,0.4,0
				c0.1,0,0.1,0,0.2,0c0.1,0,0.1,0,0.2,0c0.1,0,0.1,0,0.1,0.1c0,0,0.1,0,0.1,0.1c0,0.1,0,0.2,0,0.3L46,20.4c0,0.1-0.1,0.1-0.1,0.2
				c-0.1,0.1-0.1,0.3-0.2,0.4c-0.1,0.3-0.3,0.5-0.4,0.7c-0.2,0.4-0.4,0.7-0.5,0.8c-0.1,0.1-0.2,0.3-0.4,0.6c0,0.1-0.1,0.2-0.2,0.3
				c0,0.1-0.1,0.2-0.1,0.3c0,0,0,0.1,0,0.1l0,0c0,0,0,0,0,0.1l0,0.1l0,0c0,0,0,0.1,0,0.1c0,0.2,0,0.5,0,0.8c0,0.1,0.1,0.3,0.2,0.4
				c0.1,0.1,0.3,0.3,0.4,0.3c0,0,0.1,0,0.1,0c0,0,0.1,0,0.1,0c0.1,0,0.2,0,0.2,0c0.2,0,0.3,0,0.5,0c0.3,0,0.6,0,0.9,0
				c0.6,0,1,0,1.3,0c0.4,0,1.3,0,1.9,0c0.6,0,1.3,0,1.3,0c0,0,0.2,0,0.4,0c0.2,0,0.5,0,0.6,0c0.3,0,0.5,0,0.8,0c0.1,0,0.1,0,0.2,0
				l0.1,0l0,0c0,0,0,0,0,0c0,0,0.1-0.1,0.1-0.1c0.1-0.1,0.2-0.2,0.3-0.3c0.1-0.1,0.2-0.2,0.2-0.4c0,0,0,0,0-0.1c0,0,0-0.1,0-0.1
				c0,0,0-0.1,0-0.1c0-0.1,0-0.1-0.1-0.2c0-0.2-0.2-0.6-0.3-1.1c0-0.1,0-0.3-0.1-0.4c0-0.1,0-0.3,0-0.5c0-0.3,0-0.7,0-1
				c0-0.2,0-0.3,0-0.4c0-0.1,0-0.2,0-0.2c0-0.1,0-0.2,0-0.4c0-0.2,0.1-0.5,0.3-1c0-0.1,0.1-0.1,0.1-0.2c0-0.1,0.1-0.2,0.1-0.2
				c0.1-0.1,0.1-0.3,0.2-0.4c0.1-0.1,0.1-0.3,0.2-0.4c0.1-0.1,0.1-0.2,0.2-0.2c0,0,0.1-0.2,0.2-0.3c0.1-0.1,0.2-0.3,0.3-0.4
				c0.1-0.1,0.4-0.4,0.7-0.7c0.3-0.2,0.7-0.5,0.9-0.6c0.4-0.2,1-0.4,1.6-0.6c0.1,0,0.3-0.1,0.4-0.1c0.1,0,0.1,0,0.2,0
				c0.1,0,0.1,0,0.2,0c0.2,0,0.4,0,0.6-0.1c0.1,0,0.3,0,0.4,0c0.1,0,0.3,0,0.4,0c0.1,0,0.2,0,0.2,0c0.1,0,0.1,0,0.1,0c0,0,0,0,0.1,0
				c0.1,0,0.3,0,0.3,0c0,0,0.1,0,0.3,0c0.1,0,0.2,0,0.3,0.1c0.1,0,0.3,0.1,0.4,0.1c0.2,0,0.6,0.2,1.1,0.5c0.1,0.1,0.3,0.1,0.4,0.2
				c0.1,0,0.1,0.1,0.2,0.1c0.1,0,0.2,0.1,0.2,0.2c0.3,0.2,0.6,0.5,0.9,0.7c0.3,0.3,0.5,0.6,0.7,1c0.2,0.4,0.4,0.8,0.5,1.2
				c0.1,0.4,0.2,0.8,0.2,1.2c0,0.2,0,0.4,0,0.6c0,0.2,0,0.4,0,0.6c0,0.2,0,0.3,0,0.5c0,0.2,0,0.3,0,0.5c0,0.3,0,0.6-0.1,0.9
				c-0.1,0.5-0.1,0.9-0.1,1c0,0.2-0.1,0.3-0.1,0.3c0,0,0,0,0,0.1c0,0,0,0.1,0,0.2c0,0,0.1,0,0.1,0C66.2,25.4,66.2,25.4,66.3,25.3
				c0,0,0.1,0,0.1,0c0.1,0,0.2,0,0.3,0c0.4,0,0.4,0,0.1,0C66.6,25.3,66.4,25.3,66.3,25.3z M48.9,23.2L48.9,23.2c0-0.1,0-0.2,0.1-0.3
				c0.1-0.3,0.3-0.9,0.7-1.7c0.2-0.4,0.6-0.8,0.6-0.9c0,0,0.1-0.1,0.1-0.1c0-0.1,0.1-0.1,0.2-0.2c0.1-0.1,0.1-0.2,0.2-0.2
				c0.1-0.1,0.2-0.2,0.2-0.2c0.1-0.1,0.1-0.1,0.2-0.2c0,0,0,0,0,0c0,0,0,0.1,0,0.2c0,0,0,0.1,0,0.1c0,0,0,0,0,0.1c0,0,0,0,0,0.1
				c0,0,0,0,0,0.1c0,0,0,0.1,0,0.1c0,0,0,0.6,0,0.6c0,0,0,0,0,0.1c0,0,0,0.2,0,0.3c0,0,0,0.1,0,0.1c0,0,0,0,0,0c0,0-0.1,0.1-0.1,0.1
				c0,0,0,0,0,0.1c0,0,0,0,0,0c0,0,0,0-0.1,0.1c0,0-0.1,0.1-0.1,0.2c0,0-0.1,0.1-0.1,0.1c0,0,0,0,0,0.1c0,0,0,0,0,0.1
				c0,0,0,0-0.1,0.1c0,0-0.1,0.1-0.1,0.1c0,0,0,0-0.1,0.1c0,0,0,0.1-0.1,0.1c0,0-0.1,0.1-0.1,0.1c-0.1,0.1-0.3,0.3-0.3,0.3
				c0,0,0,0-0.1,0.1c0,0-0.2,0.1-0.3,0.2c-0.1,0-0.1,0.1-0.2,0.2c-0.1,0-0.1,0.1-0.2,0.1c0,0-0.1,0.1-0.2,0.2
				c-0.1,0-0.2,0.1-0.2,0.1c0,0-0.1,0.1-0.1,0.1c0,0,0,0-0.1,0C48.8,23.4,48.9,23.3,48.9,23.2z M48.6,25.2
				C48.6,25.2,48.6,25.2,48.6,25.2C48.5,25.2,48.5,25.2,48.6,25.2c0,0.1,0,0.1,0,0.1c-1,0-1.9,0-2.7,0c-0.2,0-0.5,0-0.7,0
				c-0.1,0-0.2,0-0.3,0c0,0-0.1,0-0.1,0c0,0,0,0-0.1,0c-0.1,0-0.1-0.1-0.2-0.2c0,0,0,0,0-0.1c0,0,0,0,0-0.1c0,0,0-0.1,0-0.1
				c0,0,0,0,0,0c0,0,0,0,0,0c0,0,0.1,0,0.1,0c0,0,0,0,0.1,0c0,0,0.1,0,0.1,0c0,0,0.1,0,0.1,0c0.1,0,0.1,0,0.2,0c0,0,0,0,0.1,0
				c0.1,0,0.6-0.1,0.8-0.1c0.1,0,0.2,0,0.2,0l0.1,0c0,0,0.1,0,0.2,0c0.3,0,0.8-0.1,1.5-0.4c0.3-0.1,0.6-0.2,0.7-0.3
				c0,0.2,0,0.5,0,0.6C48.5,24.8,48.6,25.1,48.6,25.2z M51.4,25.2C51.4,25.2,51.4,25.2,51.4,25.2C51.4,25.3,51.4,25.3,51.4,25.2
				c-0.7,0.1-1.4,0.1-2.1,0.1c-0.2,0-0.4,0-0.7,0c0,0,0,0,0-0.1c0,0,0-0.1,0-0.1c0,0,0,0,0-0.1c0,0,0-0.1,0-0.1c0,0,0-0.1,0-0.1
				c0-0.1,0-0.1,0-0.2c0,0,0,0,0-0.1c0,0,0-0.2,0.1-0.4c0-0.1,0-0.1,0-0.2c0.1-0.1,0.4-0.2,0.7-0.4c0.3-0.2,0.6-0.4,0.7-0.5
				c0.1-0.1,0.2-0.2,0.3-0.2c0.1-0.1,0.2-0.2,0.2-0.2c0.1-0.1,0.2-0.2,0.2-0.3C50.9,22.1,51,22,51,22c0,0,0-0.1,0.1-0.1
				c0,0,0-0.1,0-0.1c0,0,0-0.1,0.1-0.3c0,0,0,0.1,0,0.1c0,0,0,0.1,0,0.1c0,0,0,0.1,0,0.1c0,0,0,0.1,0,0.1c0,0,0,0.1,0,0.1
				c0,0,0,0.2,0,0.4c0,0,0,0.1,0,0.1c0,0,0,0.1,0,0.2c0,0.1,0,0.2,0,0.2c0,0,0,0.1,0,0.1c0,0,0,0.1,0,0.1c0,0,0,0.1,0,0.1
				c0,0.1,0,0.3,0,0.3c0,0,0,0.1,0,0.1c0,0,0,0,0,0c0,0,0,0,0,0c0,0,0,0,0,0c0,0,0,0,0,0c0,0,0,0.1,0,0.1c0,0.1,0,0.6,0,1
				C51.4,25,51.4,25.1,51.4,25.2C51.4,25.2,51.4,25.2,51.4,25.2C51.4,25.2,51.4,25.2,51.4,25.2z M54.2,17.8
				c-0.1,0.1-0.2,0.2-0.2,0.3c-0.2,0.2-0.3,0.5-0.4,0.7c-0.3,0.6-0.4,1.2-0.5,1.8C53,21.3,53,21.8,53,22.3c0,0.5,0,0.9,0.1,1.2
				c0.1,0.3,0.1,0.5,0.1,0.6c0,0.1,0.1,0.2,0.1,0.3c0,0.1,0,0.1,0.1,0.2c0,0,0,0.1,0,0.1l0,0l0,0c0,0,0,0,0,0c0,0.1-0.1,0.2-0.2,0.3
				c0,0-0.1,0.1-0.1,0.1l-0.1,0c0,0,0,0,0,0c-0.1,0-0.2,0-0.3,0c-0.4,0-0.8,0-1.3,0c0,0,0,0,0,0c0,0,0,0,0,0c0,0,0,0,0-0.1
				c0,0,0,0,0-0.1c0,0,0-0.1,0-0.1c0,0,0-0.1,0-0.1c0-0.1,0-0.1,0-0.1c0,0,0,0,0,0c0,0,0-0.5,0-0.6c0-0.1,0-0.1,0-0.1v0
				c0,0,0-0.1,0-0.1c0-0.2,0-0.6,0-1.1c0-0.3,0-0.6,0-0.6c0-0.2,0-1.1,0-1.2c0-0.1,0-0.2,0-0.3c0-0.1,0-0.2,0-0.2c0-0.1,0-0.5,0-0.5
				c0,0,0-0.1,0-0.1c0,0,0-0.1,0-0.1c0,0,0-0.1,0-0.4c0-0.1,0-0.1,0-0.1c0,0,0,0,0,0c0,0,0,0,0,0c0,0,0,0,0.1,0
				c0.1-0.1,0.1-0.1,0.2-0.1c0.1,0,0.1-0.1,0.1-0.1c0,0,0.1-0.1,0.2-0.1c0,0,0.1,0,0.1-0.1c0,0,0.1,0,0.1-0.1
				c0.1-0.1,0.3-0.2,0.3-0.2c0.1-0.1,0.3-0.2,0.5-0.3c0.2-0.1,0.3-0.1,0.3-0.1c0,0,0.1,0,0.1-0.1c0,0,0.1,0,0.1-0.1
				c0,0,0.1-0.1,0.7-0.3c0.1,0,0.1,0,0.1-0.1C54.3,17.7,54.2,17.7,54.2,17.8z M54.3,17.6C54.3,17.6,54.3,17.6,54.3,17.6
				C54.3,17.6,54.3,17.6,54.3,17.6C54.3,17.6,54.3,17.6,54.3,17.6C54.3,17.6,54.3,17.6,54.3,17.6z"/>
		</g>
		<g>
			<path fill="#C8C8CB" d="M41.6,30.1l-0.2,1.3h-0.7l0.7-3.6h1.3c0.7,0,1.1,0.4,1.1,1c0,0.8-0.6,1.3-1.6,1.3H41.6z M41.7,29.5h0.4
				c0.6,0,0.8-0.2,0.8-0.7c0-0.3-0.2-0.4-0.6-0.4h-0.4L41.7,29.5z"/>
			<path fill="#C8C8CB" d="M47.4,31.3h-0.8l-0.4-1.4h-0.6l-0.3,1.4h-0.7l0.7-3.6h1.3c0.7,0,1.1,0.4,1.1,0.9c0,0.6-0.3,0.9-0.8,1.1
				L47.4,31.3z M45.8,29.3h0.5c0.5,0,0.8-0.1,0.8-0.6c0-0.3-0.2-0.4-0.6-0.4H46L45.8,29.3z"/>
			<path fill="#C8C8CB" d="M51.8,29.8c-0.2,1.1-0.8,1.6-1.7,1.6c-0.8,0-1.3-0.6-1.1-1.6l0.1-0.5c0.2-1,0.8-1.6,1.7-1.6
				c0.4,0,0.7,0.1,0.9,0.4c0.2,0.3,0.2,0.7,0.1,1.2L51.8,29.8z M49.8,29.8c-0.1,0.6,0,1,0.5,1c0.4,0,0.7-0.3,0.8-1l0.1-0.5
				c0.1-0.6,0-1-0.5-1c-0.4,0-0.7,0.3-0.8,1L49.8,29.8z"/>
			<path fill="#C8C8CB" d="M53.5,27.8h2.7L56,28.4h-1l-0.6,2.9h-0.7l0.6-2.9h-1L53.5,27.8z"/>
			<path fill="#C8C8CB" d="M57.6,27.8h2.2l-0.1,0.6h-1.5L58,29.2h1.3l-0.1,0.6h-1.3l-0.2,0.9h1.5l-0.1,0.6h-2.2L57.6,27.8z"/>
			<path fill="#C8C8CB" d="M63,28.9c0-0.4-0.2-0.5-0.5-0.5c-0.4,0-0.7,0.3-0.8,1l-0.1,0.5c-0.1,0.6,0,1,0.5,1c0.4,0,0.5-0.2,0.7-0.5
				h0.7c-0.3,0.8-0.7,1.1-1.5,1.1c-0.4,0-0.7-0.1-0.9-0.4c-0.2-0.3-0.2-0.7-0.1-1.2l0.1-0.5c0.2-1,0.8-1.6,1.7-1.6
				c0.7,0,1.1,0.4,1.1,1.1H63z"/>
			<path fill="#C8C8CB" d="M65,27.8h2.7l-0.1,0.6h-1L66,31.3h-0.7l0.6-2.9h-1L65,27.8z"/>
			<path fill="#C8C8CB" d="M71.1,27.8h0.8l0.4,1.3l0.9-1.3h0.9l-1.5,2.1l-0.3,1.5h-0.7l0.3-1.5L71.1,27.8z"/>
			<path fill="#C8C8CB" d="M77.6,29.8c-0.2,1.1-0.8,1.6-1.7,1.6c-0.8,0-1.3-0.6-1.1-1.6l0.1-0.5c0.2-1,0.8-1.6,1.7-1.6
				c0.4,0,0.7,0.1,0.9,0.4c0.2,0.3,0.2,0.7,0.1,1.2L77.6,29.8z M75.6,29.8c-0.1,0.6,0,1,0.5,1c0.4,0,0.7-0.3,0.8-1l0.1-0.5
				c0.1-0.6,0-1-0.5-1c-0.4,0-0.7,0.3-0.8,1L75.6,29.8z"/>
			<path fill="#C8C8CB" d="M81.6,27.8h0.7l-0.4,2.1c-0.2,1.1-0.8,1.5-1.7,1.5c-0.4,0-0.7-0.1-0.9-0.4c-0.2-0.3-0.3-0.6-0.2-1.1
				l0.4-2.1h0.7l-0.4,2.1c-0.1,0.6,0,0.9,0.5,0.9c0.5,0,0.7-0.3,0.8-0.9L81.6,27.8z"/>
			<path fill="#C8C8CB" d="M86.1,31.3h-0.8L85,29.9h-0.6l-0.3,1.4h-0.7l0.7-3.6h1.3c0.7,0,1.1,0.4,1.1,0.9c0,0.6-0.3,0.9-0.8,1.1
				L86.1,31.3z M84.5,29.3H85c0.5,0,0.8-0.1,0.8-0.6c0-0.3-0.2-0.4-0.6-0.4h-0.5L84.5,29.3z"/>
			<path fill="#C8C8CB" d="M92.3,28.9c0-0.4-0.2-0.5-0.5-0.5c-0.4,0-0.7,0.3-0.8,1l-0.1,0.5c-0.1,0.6,0,1,0.5,1
				c0.4,0,0.5-0.2,0.7-0.5h0.7c-0.3,0.8-0.7,1.1-1.5,1.1c-0.4,0-0.7-0.1-0.9-0.4c-0.2-0.3-0.2-0.7-0.1-1.2l0.1-0.5
				c0.2-1,0.8-1.6,1.7-1.6c0.7,0,1.1,0.4,1.1,1.1H92.3z"/>
			<path fill="#C8C8CB" d="M94.4,31.3h-0.8l1.9-3.6h0.7l0.5,3.6H96l-0.1-0.7h-1.2L94.4,31.3z M95.7,28.8l-0.6,1.3h0.8L95.7,28.8z"/>
			<path fill="#C8C8CB" d="M100.9,31.3h-0.8l-0.4-1.4h-0.6l-0.3,1.4h-0.7l0.7-3.6h1.3c0.7,0,1.1,0.4,1.1,0.9c0,0.6-0.3,0.9-0.8,1.1
				L100.9,31.3z M99.2,29.3h0.5c0.5,0,0.8-0.1,0.8-0.6c0-0.3-0.2-0.4-0.6-0.4h-0.5L99.2,29.3z"/>
			<path fill="#C8C8CB" d="M105.3,27.8h1.2c0.7,0,1.1,0.3,1.1,0.8c0,0.4-0.2,0.7-0.6,0.9c0.3,0.1,0.4,0.4,0.4,0.7
				c0,0.3-0.1,0.6-0.4,0.8c-0.3,0.2-0.6,0.3-1.1,0.3h-1.3L105.3,27.8z M105.7,29.8l-0.2,0.9h0.5c0.5,0,0.7-0.2,0.7-0.5
				c0-0.3-0.2-0.4-0.6-0.4H105.7z M105.9,28.4l-0.2,0.8h0.5c0.4,0,0.7-0.2,0.7-0.5c0-0.2-0.2-0.3-0.6-0.3H105.9z"/>
			<path fill="#C8C8CB" d="M111.7,29.8c-0.2,1.1-0.8,1.6-1.7,1.6c-0.8,0-1.3-0.6-1.1-1.6l0.1-0.5c0.2-1,0.8-1.6,1.7-1.6
				c0.4,0,0.7,0.1,0.9,0.4c0.2,0.3,0.2,0.7,0.1,1.2L111.7,29.8z M109.7,29.8c-0.1,0.6,0,1,0.5,1c0.4,0,0.7-0.3,0.8-1l0.1-0.5
				c0.1-0.6,0-1-0.5-1c-0.4,0-0.7,0.3-0.8,1L109.7,29.8z"/>
			<path fill="#C8C8CB" d="M113,31.3l0.7-3.6h1.3c0.8,0,1.3,0.5,1.1,1.5l-0.1,0.5c-0.2,1.1-0.7,1.5-1.7,1.5H113z M114.4,30.7
				c0.5,0,0.7-0.3,0.8-0.9l0.1-0.5c0.1-0.6,0-0.9-0.5-0.9h-0.5l-0.5,2.3H114.4z"/>
			<path fill="#C8C8CB" d="M117.5,27.8h0.8l0.4,1.3l0.9-1.3h0.9l-1.5,2.1l-0.3,1.5h-0.7l0.3-1.5L117.5,27.8z"/>
		</g>
	</g>
	<g>
		<g>
			<path fill="#C8C8CB" d="M18.4,50.5l-2.6-7.3l-2.6,7.3h-0.9l-2.6-8.9h1l2,7.1l2.5-7.1h0.8l2.6,7.1l2-7.1h1l-2.6,8.9H18.4z"/>
			<path fill="#C8C8CB" d="M30.9,50.5l-2.6-7.3l-2.6,7.3h-0.9l-2.6-8.9h1l2,7.1l2.5-7.1h0.8l2.6,7.1l2-7.1h1l-2.6,8.9H30.9z"/>
			<path fill="#C8C8CB" d="M43.3,50.5l-2.6-7.3l-2.6,7.3h-0.9l-2.6-8.9h1l2,7.1l2.5-7.1h0.8l2.6,7.1l2-7.1h1l-2.6,8.9H43.3z"/>
			<path fill="#C8C8CB" d="M49.3,49v1.4h-1.4V49H49.3z"/>
			<path fill="#C8C8CB" d="M53.5,38.2v3.9c0.4-0.5,1.1-0.7,1.9-0.7c2.2,0,3.5,1.4,3.5,4.1v1.1c0,2.5-1.2,4.1-3.5,4.1
				c-0.9,0-1.5-0.2-1.9-0.7v0.5h-2.2V38.2H53.5z M56.7,45.6c0-1.5-0.5-2.2-1.6-2.2c-1,0-1.6,0.7-1.6,2.2v0.9c0,1.5,0.5,2.2,1.6,2.2
				c1,0,1.6-0.7,1.6-2.2V45.6z"/>
			<path fill="#C8C8CB" d="M67.8,46.6c0,2.5-1.3,4.1-3.8,4.1c-2.5,0-3.8-1.5-3.8-4.1v-1.1c0-2.6,1.4-4.1,3.8-4.1
				c2.5,0,3.8,1.4,3.8,4.1V46.6z M65.5,46.5v-0.9c0-1.5-0.5-2.2-1.6-2.2c-1,0-1.6,0.7-1.6,2.2v0.9c0,1.4,0.4,2.2,1.6,2.2
				C65,48.7,65.5,48,65.5,46.5z"/>
			<path fill="#C8C8CB" d="M74.4,38.2h2.3v12.3h-2.3V50c-0.5,0.4-1.1,0.7-1.9,0.7c-2.3,0-3.5-1.6-3.5-4v-1.2c0-2.5,1.4-4,3.5-4
				c0.8,0,1.4,0.2,1.9,0.6V38.2z M74.4,46.5v-1.1c0-1.3-0.5-2-1.6-2c-1,0-1.6,0.7-1.6,2.2v0.9c0,1.5,0.5,2.2,1.6,2.2
				C74,48.7,74.4,47.9,74.4,46.5z"/>
			<path fill="#C8C8CB" d="M77.6,41.6H80l2,5.7l1.8-5.7h2.3L83,50.9c-0.4,1.2-0.9,2-1.4,2.4c-0.5,0.4-1.4,0.6-2.7,0.6v-2
				c1.3,0,1.7-0.2,2.1-1.2L77.6,41.6z"/>
			<path fill="#C8C8CB" d="M86.3,41.6h1.1v-0.5c0-1.1,0.2-1.9,0.7-2.3c0.5-0.4,1.2-0.6,2.4-0.6h0.7v2h-0.4c-0.8,0-1,0.3-1,1.3v0.1
				h1.4v1.9h-1.4v7h-2.3v-7h-1.1V41.6z"/>
			<path fill="#C8C8CB" d="M99.2,49.1c-0.6,1-1.7,1.5-3.3,1.5c-2.6,0-3.9-1.6-3.9-4v-1.2c0-2.6,1.3-4,3.7-4c2.4,0,3.7,1.4,3.7,4.2v1
				h-5.1c0,1.4,0.6,2.1,1.7,2.1c0.9,0,1.2-0.2,1.6-0.8L99.2,49.1z M94.3,45H97c-0.1-1.1-0.5-1.6-1.4-1.6
				C94.8,43.4,94.3,43.9,94.3,45z"/>
			<path fill="#C8C8CB" d="M101,50.5v-8.9h2.2v0.7c0.5-0.6,1.1-0.9,2-0.9c2,0,3.3,1,3.3,3.5v5.6h-2.3v-5.2c0-1.4-0.5-1.9-1.4-1.9
				c-1,0-1.6,0.6-1.6,1.9v5.2H101z"/>
			<path fill="#C8C8CB" d="M117.2,49.1c-0.6,1-1.7,1.5-3.2,1.5c-2.5,0-4-1.5-4-4v-1.2c0-2.6,1.4-4,4.1-4c1.4,0,2.5,0.5,3.1,1.5
				l-1.7,1.2c-0.4-0.5-0.8-0.7-1.5-0.7c-1.2,0-1.8,0.7-1.8,2.2v0.9c0,0.7,0.1,1.3,0.4,1.7c0.3,0.4,0.7,0.6,1.4,0.6
				c0.7,0,1.2-0.2,1.5-0.8L117.2,49.1z"/>
			<path fill="#C8C8CB" d="M125,49.1c-0.6,1-1.7,1.5-3.3,1.5c-2.6,0-3.9-1.6-3.9-4v-1.2c0-2.6,1.3-4,3.7-4c2.4,0,3.7,1.4,3.7,4.2v1
				H120c0,1.4,0.6,2.1,1.7,2.1c0.9,0,1.2-0.2,1.6-0.8L125,49.1z M120,45h2.8c-0.1-1.1-0.5-1.6-1.4-1.6C120.6,43.4,120.1,43.9,120,45
				z"/>
			<path fill="#C8C8CB" d="M128.4,49v1.4H127V49H128.4z"/>
			<path fill="#C8C8CB" d="M130.8,50.5v-8.9h1v1.2c0.5-0.9,1.4-1.3,2.6-1.3c2,0,3.3,1.3,3.3,3.7v5.3h-1v-5.2c0-1.9-0.9-2.8-2.4-2.8
				c-1.6,0-2.5,1-2.5,2.7v5.3H130.8z"/>
			<path fill="#C8C8CB" d="M146.6,46.3h-5.9v0.4c0,1.8,0.9,3,2.7,3c1.1,0,1.8-0.4,2.3-1.1l0.8,0.6c-0.6,1-1.6,1.4-3,1.4
				c-2.4,0-3.7-1.5-3.7-3.9v-1.3c0-2.5,1.2-3.9,3.4-3.9c2.2,0,3.4,1.4,3.4,3.9V46.3z M140.7,45.4h4.9v0c0-1.9-0.8-3-2.5-3
				C141.5,42.4,140.7,43.4,140.7,45.4L140.7,45.4z"/>
			<path fill="#C8C8CB" d="M148,42.5v-0.9h1.1v-2h1v2h2.2v0.9h-2.2v5c0,0.8,0.1,1.3,0.3,1.6c0.2,0.3,0.6,0.4,1.3,0.4h0.6v0.9h-0.6
				c-1.9,0-2.5-0.8-2.5-2.7v-5.2H148z"/>
		</g>
	</g>
</g>
</svg>
