<?xml version="1.0" encoding="utf-8"?>
<!-- Generator: Adobe Illustrator 17.1.0, SVG Export Plug-In . SVG Version: 6.00 Build 0)  -->
<!DOCTYPE svg PUBLIC "-//W3C//DTD SVG 1.1//EN" "http://www.w3.org/Graphics/SVG/1.1/DTD/svg11.dtd">
<svg version="1.1" id="Calque_1" xmlns="http://www.w3.org/2000/svg" xmlns:xlink="http://www.w3.org/1999/xlink" x="0px" y="0px"
	 viewBox="0 0 318.3 68.1" enable-background="new 0 0 318.3 68.1" xml:space="preserve">
<g id="Logo_x5F_Bodyfence_x5F_2K18_1_">
	<g id="Monogramme-B_1_">
		<path fill="#E30613" d="M31,10.6H16.6c-5,0-9,4-9,9v14.4h3.5V19.6c0-3,2.5-5.5,5.5-5.5H31V10.6z"/>
		<path fill="#E30613" d="M50.9,34.1v14.4c0,3-2.5,5.5-5.5,5.5H31v3.5h14.4c5,0,9-4,9-9V34.1H50.9z"/>
		<path fill="#E30613" d="M37.1,42.5h-9.5v5.6h9.5c4.4,0,8-3.8,8-8.4c0-2.1-0.7-4.1-2.1-5.6c1.3-1.6,2.1-3.5,2.1-5.6
			c0-4.6-3.6-8.4-8-8.4H17v24.7c0,2.2,1.3,3.4,3.6,3.4h1.7V25.6h14.8c1.5,0,2.7,1.3,2.7,2.8c0,1.6-1.2,2.8-2.7,2.8l-9.5,0v5.6h9.5
			c1.5,0,2.7,1.3,2.7,2.8C39.8,41.2,38.6,42.5,37.1,42.5z"/>
	</g>
	<g id="Bodyfence_x5F_PPF_1_">
		<g id="PPF_1_">
			<path d="M76.2,48.5c-0.1-0.1-0.2-0.1-0.4-0.1l-2.6,0l0,6.7l0.7,0l0-2.7l1.9,0c0.2,0,0.3,0,0.4-0.1c0.1-0.1,0.2-0.2,0.2-0.3l0-3.1
				C76.4,48.7,76.3,48.6,76.2,48.5z M73.9,51.9l0-3l1.7,0l0,3L73.9,51.9z"/>
			<path d="M86.5,48.4l-1.4,6.7v0l0.7,0l0.3-1.5l1.6,0l0.3,1.5l0.7,0l-1.4-6.8L86.5,48.4z M86.2,53.1l0.7-3.7l0.7,3.7L86.2,53.1z"/>
			<rect x="97.6" y="48.4" width="0.7" height="6.7"/>
			<polygon points="110.1,48.4 110.1,53.3 108,48.4 107.5,48.4 107.5,55.1 108.2,55.1 108.2,50.2 110.3,55.1 110.8,55.1 110.8,48.4 
							"/>
			<polygon points="122.8,48.4 119.6,48.4 119.6,48.9 120.8,48.9 120.8,55.1 121.5,55.1 121.5,48.9 122.8,48.9 			"/>
			<path d="M144.5,48.5c-0.1-0.1-0.2-0.1-0.4-0.1l-2.6,0l0,6.7l0.7,0l0-2.7l1.9,0c0.2,0,0.3,0,0.4-0.1c0.1-0.1,0.2-0.2,0.2-0.3
				l0-3.1C144.6,48.7,144.6,48.6,144.5,48.5z M142.2,51.9l0-3l1.7,0l0,3L142.2,51.9z"/>
			<path d="M155.9,51.9c0.1,0,0.2,0,0.2,0c0.5,0,0.8-0.2,0.8-0.5l0-2.6c0-0.1-0.1-0.3-0.2-0.3c-0.1-0.1-0.2-0.1-0.4-0.1l-2.7,0
				l0,6.7l0.7,0l0-6.2l1.8,0l0,2.5l-1.3,0l-0.1,0.1l1.5,3.6l0.7,0c-0.5-1.1-0.9-2.2-1.4-3.2C155.8,51.9,155.8,51.9,155.9,51.9z"/>
			<path d="M169.3,48.5c-0.1-0.1-0.2-0.1-0.4-0.1l-2.2,0c-0.2,0-0.3,0-0.4,0.1c-0.1,0.1-0.2,0.2-0.2,0.3l0,5.8
				c0,0.1,0.1,0.3,0.2,0.3c0.1,0.1,0.2,0.1,0.4,0.1l2.2,0c0.2,0,0.3,0,0.4-0.1c0.1-0.1,0.2-0.2,0.2-0.3l0-5.8
				C169.4,48.7,169.4,48.6,169.3,48.5z M166.8,54.6l0-5.7l2,0l0,5.7L166.8,54.6z"/>
			<polygon points="181.4,48.3 178.2,48.3 178.2,48.9 179.4,48.9 179.5,55.1 180.2,55.1 180.2,48.9 181.4,48.9 			"/>
			<polygon points="190.9,54.6 190.9,51.9 192.6,51.9 192.6,51.4 190.9,51.4 190.9,48.9 192.7,48.9 192.7,48.3 190.1,48.3 
				190.1,55.1 192.8,55.1 192.8,54.6 			"/>
			<path d="M204.3,52.9l0,1.7l-1.8,0l0-5.7l1.8,0l0,1.5l0.7,0l0-1.6c0-0.1-0.1-0.3-0.2-0.3c-0.1-0.1-0.2-0.1-0.4-0.1l-2.1,0
				c-0.2,0-0.3,0-0.4,0.1c-0.1,0.1-0.2,0.2-0.2,0.3l0,5.8c0,0.1,0.1,0.3,0.2,0.3c0.1,0.1,0.2,0.1,0.4,0.1l2.1,0c0.2,0,0.3,0,0.4-0.1
				c0.1-0.1,0.2-0.2,0.2-0.3l0-1.7L204.3,52.9z"/>
			<polygon points="216.9,48.3 213.7,48.3 213.7,48.9 215,48.9 215,55.1 215.7,55.1 215.7,48.9 216.9,48.9 			"/>
			<rect x="225.7" y="48.3" width="0.7" height="6.7"/>
			<path d="M238.9,48.4c-0.1-0.1-0.2-0.1-0.4-0.1l-2.2,0c-0.2,0-0.3,0-0.4,0.1c-0.1,0.1-0.2,0.2-0.2,0.3l0,5.8
				c0,0.1,0.1,0.3,0.2,0.3c0.1,0.1,0.2,0.1,0.4,0.1l2.2,0c0.2,0,0.3,0,0.4-0.1c0.1-0.1,0.2-0.2,0.2-0.3l0-5.8
				C239,48.6,239,48.5,238.9,48.4z M236.4,54.5l0-5.7l2,0l0,5.7L236.4,54.5z"/>
			<polygon points="250.9,48.3 250.9,53.2 248.8,48.3 248.2,48.3 248.2,55 248.9,55 248.9,50.1 251,55 251.5,55 251.5,48.3 			"/>
			<polygon points="273.3,48.3 270.7,48.3 270.7,55 271.4,55 271.4,51.9 273.1,51.9 273.1,51.4 271.4,51.4 271.4,48.8 273.3,48.8 
							"/>
			<rect x="282.2" y="48.3" width="0.7" height="6.7"/>
			<polygon points="292.9,54.5 292.9,48.3 292.2,48.3 292.2,55 294.7,55 294.7,54.5 			"/>
			<path d="M306.9,48.3l-1.3,4.4c0,0.1,0,0.2,0,0.2c0-0.1,0-0.2,0-0.2l-1.3-4.4l-0.7,0l0,6.7l0.7,0l0-4.3c0-0.1,0-0.2-0.1-0.5
				l1.3,4.2l0.1,0l1.3-4.2c0,0.3-0.1,0.5-0.1,0.5l0,4.3l0.7,0l0-6.7L306.9,48.3z"/>
		</g>
		<g id="Bodyfence_1_">
			<path d="M122.4,34.9l0-10.2c0-3.6-1.1-4.6-4.7-4.6l-13.9,0c-3.5,0-4.7,0.9-4.7,4.6l0,10.2c0,3.6,1.1,4.6,4.7,4.6l13.9,0
				C121.3,39.5,122.4,38.5,122.4,34.9z M103.6,35.8l0-12.2l14.5,0l0,12.2L103.6,35.8z"/>
			<path d="M276.8,31.7l0,4.2l-11.9,0l0-12.2l11.9,0l0,3.7l4.4-0.7l0-1.8c0-3.6-1.1-4.6-4.7-4.6l-11.3,0c-3.5,0-4.7,0.9-4.7,4.6
				l0,10.2c0,3.6,1.1,4.6,4.7,4.6l11.3,0c3.5,0,4.7-0.9,4.7-4.6l0-2.3L276.8,31.7z"/>
			<polygon points="164.8,27.7 158,20.2 152.7,20.2 162.5,30.8 162.5,39.5 166.9,39.5 166.9,30.7 176.7,20.1 171.3,20.1 			"/>
			<polygon points="225.9,36 210.8,36 210.8,31 223,31 223,27.7 210.8,27.8 210.7,23.4 225.7,23.4 225.7,20.1 206.4,20.2 
				206.4,39.5 225.9,39.5 			"/>
			<polygon points="307.6,36 292.5,36 292.5,31 304.7,31 304.7,27.7 292.5,27.8 292.5,23.4 307.6,23.4 307.6,20.1 288.1,20.2 
				288.1,39.5 307.6,39.5 			"/>
			<polygon points="200,20.1 180.9,20.2 180.9,31.1 180.9,31.1 180.9,39.5 185.3,39.5 185.3,31.1 198.2,31.1 198.2,27.7 185.3,27.7 
				185.3,23.5 200,23.5 			"/>
			<path d="M250.3,20.1c0,0-0.1,11.8,0,13.4c-0.7-0.8-15.3-13.4-15.3-13.4l-3,0l0,19.3l3.9,0l0-13.1l15.3,13.1l3,0l0-19.3
				L250.3,20.1z"/>
			<path d="M141,20.1l-12.1,0v0l-0.1,0l0,19.3l11,0c3.4,0,5.9-0.3,7.8-1.5c2.6-1.6,4.2-4.6,4.2-8.3C151.8,23.7,148,20.1,141,20.1z
				 M138.9,35.8l-5.7,0l0-12.2l7.8,0c4.1,0,6.2,2.1,6.2,6C147.2,34.4,144.5,35.8,138.9,35.8z"/>
			<path d="M88.3,20H73.2c0,0,0,15.8,0,17.3c0,1.5,1,2.1,2.5,2.1c0.4,0,12.6,0.1,12.6,0.1c3.2,0,5.9-2.6,5.9-5.7c0-1.6-0.6-3-1.7-4
				c1-1,1.7-2.5,1.7-4C94.2,22.5,91.5,20,88.3,20z M88.3,36H76.7v-4.6h11.6c1.3,0,2.3,1,2.3,2.3C90.6,35,89.6,36,88.3,36z M88.3,28
				L88.3,28l-11.6,0v-4.6h11.6c1.3,0,2.3,1,2.3,2.3C90.6,27,89.6,28,88.3,28z"/>
		</g>
	</g>
</g>
</svg>
